# xmcd
#
# Track frame offsets: 
#        150
#        11309
#        22681
#        32703
#        43678
#        56861
#        69772
#        79508
#        93464
#        103540
#        117313
#        129959
#        146054
#        156440
#        168691
#        182205
#        193558
#        203387
#        215267
#        230275
#        239728
#        250534
#        262830
#        273698
#
# Disc length: 3794 seconds
#
# Revision: 1
# Processed by: cddbd v1.5.2PL0 Copyright (c) Steve Scherf et al.
# Submitted via: ExactAudioCopy v1.0b3
#
DISCID=410ed018
DTITLE=The Stanley Brothers - 8 Classic Albums CD3
DYEAR=2010
DGENRE=Bluegrass
TTITLE0=Gathering Flowers For The Master's Bouquet
TTITLE1=In Heaven We'll Never Grow Old
TTITLE2=Praise The Lord (I Saw The Light)
TTITLE3=Where We'll Never Die
TTITLE4=The Darkest Hour Is Just Before Dawn
TTITLE5=Let Me Hide Myself In Thee (Rock Of Ages)
TTITLE6=Let The Church Roll On
TTITLE7=Rank Stranger
TTITLE8=I'm Ready To Go
TTITLE9=Mother No Longer Awaits Me
TTITLE10=A Few More Seasons
TTITLE11=What A Friend (We Have In Jesus)
TTITLE12=Shenandoah Waltz
TTITLE13=Mountain Dew
TTITLE14=Tragic Romance
TTITLE15=Sunny Side Of The Mountain
TTITLE16=Next Sunday Darling Is My Birthday
TTITLE17=I'm A Man Of Constant Sorrow
TTITLE18=Sweeter Than The Flowers
TTITLE19=Old Rattler
TTITLE20=Weeping Willow
TTITLE21=Sweet Thing
TTITLE22=It's Raining Here This Morning
TTITLE23=Shackles And Chains
EXTD=
EXTT0=
EXTT1=
EXTT2=
EXTT3=
EXTT4=
EXTT5=
EXTT6=
EXTT7=
EXTT8=
EXTT9=
EXTT10=
EXTT11=
EXTT12=
EXTT13=
EXTT14=
EXTT15=
EXTT16=
EXTT17=
EXTT18=
EXTT19=
EXTT20=
EXTT21=
EXTT22=
EXTT23=
PLAYORDER=
